<svg width="23" height="23" viewBox="0 0 23 23" fill="none" xmlns="http://www.w3.org/2000/svg">
<path d="M10.0782 13.2843L7.62816 10.9391C7.42165 10.7414 7.1682 10.6426 6.86782 10.6426C6.56744 10.6426 6.3046 10.7504 6.07931 10.966C5.8728 11.1637 5.76954 11.4153 5.76954 11.7208C5.76954 12.0263 5.8728 12.2779 6.07931 12.4756L9.28966 15.5487C9.49617 15.7464 9.75901 15.8453 10.0782 15.8453C10.3973 15.8453 10.6602 15.7464 10.8667 15.5487L17.2592 9.42948C17.4657 9.2318 17.569 8.98919 17.569 8.70164C17.569 8.4141 17.4563 8.1625 17.231 7.94685C17.0245 7.74916 16.7617 7.65032 16.4425 7.65032C16.1234 7.65032 15.8605 7.74916 15.654 7.94685L10.0782 13.2843ZM11.6552 22.1263C10.0969 22.1263 8.63257 21.843 7.26207 21.2766C5.89158 20.7101 4.69943 19.942 3.68564 18.9723C2.67184 18.0018 1.86944 16.8606 1.27844 15.5487C0.687437 14.2368 0.391559 12.8351 0.390808 11.3434C0.390808 9.85181 0.686686 8.45004 1.27844 7.13813C1.8702 5.82622 2.67259 4.68504 3.68564 3.71459C4.69943 2.74413 5.89158 1.97603 7.26207 1.41029C8.63257 0.844556 10.0969 0.561327 11.6552 0.560608C13.2134 0.560608 14.6778 0.843837 16.0483 1.41029C17.4188 1.97675 18.6109 2.74485 19.6247 3.71459C20.6385 4.68504 21.4413 5.82622 22.033 7.13813C22.6248 8.45004 22.9203 9.85181 22.9195 11.3434C22.9195 12.8351 22.6237 14.2368 22.0319 15.5487C21.4402 16.8606 20.6378 18.0018 19.6247 18.9723C18.6109 19.9427 17.4188 20.7112 16.0483 21.2777C14.6778 21.8441 13.2134 22.127 11.6552 22.1263Z" fill="#F6782F"/>
</svg>
