<svg width="131" height="134" viewBox="0 0 131 134" fill="none" xmlns="http://www.w3.org/2000/svg">
<path d="M2.67714 132.489C5.19872 135.222 15.585 130.456 23.7829 126.635C29.9258 123.78 54.5085 113.694 66.7277 108.462C70.0269 107.051 74.8257 105.207 78.2803 100.664C81.3462 96.6202 89.4775 79.4467 73.1039 62.0511C56.4858 44.3888 39.3679 49.2654 32.9695 53.7976C29.2038 56.4636 26.1379 62.4732 24.7605 65.528C18.9397 78.4358 10.6418 102.085 7.26487 111.383C4.78772 118.237 0.177765 129.778 2.67714 132.489Z" fill="#FFC107"/>
<path d="M23.1164 69.4159C23.2719 71.3487 23.6607 74.4924 24.9937 80.5464C25.9046 84.7009 27.3931 89.0554 28.6039 91.9324C32.2364 100.586 37.3351 104.074 42.5004 106.873C51.276 111.627 57.2412 112.516 57.2412 112.516L50.0874 115.438C50.0874 115.438 45.7552 114.538 39.8456 111.627C34.2136 108.85 28.3484 104.152 24.0606 94.9539C22.2055 90.966 21.128 87.1003 20.506 84.0344C19.7395 80.2354 19.6173 78.0804 19.6173 78.0804L23.1164 69.4159Z" fill="#FF8F00"/>
<path d="M14.3298 91.9435C14.3298 91.9435 15.2185 99.1528 21.1725 108.251C28.1486 118.892 37.8906 120.636 37.8906 120.636L31.4144 123.302C31.4144 123.302 24.1829 121.092 17.3068 111.705C13.019 105.851 11.8193 98.8529 11.8193 98.8529L14.3298 91.9435Z" fill="#FF8F00"/>
<path d="M8.16454 109.028C8.16454 109.028 9.78635 115.249 13.341 119.892C17.5733 125.435 22.9608 127.046 22.9608 127.046L17.9954 129.245C17.9954 129.245 14.2297 128.457 10.1085 123.236C6.97595 119.27 6.08728 114.716 6.08728 114.716L8.16454 109.028Z" fill="#FF8F00"/>
<path opacity="0.44" d="M5.46531 124.824C5.24314 124.324 5.24314 123.758 5.47642 123.269L33.7693 64.5948L38.4237 82.0905L8.6534 125.091C7.8536 126.29 6.05405 126.135 5.46531 124.824Z" fill="#FFFDE7"/>
<path d="M40.6675 87.9668C53.8864 103.43 68.9382 101.497 73.948 97.5866C78.969 93.6653 82.9347 80.1909 69.7713 64.9836C55.9748 49.0543 40.3565 53.5976 36.7463 57.0412C33.1361 60.4848 28.5372 73.7814 40.6675 87.9668Z" fill="url(#paint0_linear_180_7667)"/>
<path d="M86.0673 94.3318C81.2463 90.2884 78.6802 91.0105 75.2367 92.4434C70.7933 94.2874 63.8062 95.6537 54.3197 92.4434L57.1745 85.5674C62.8065 87.4669 66.8832 86.5449 70.4045 84.4677C74.9367 81.8017 81.1352 78.147 90.7772 86.245C94.7984 89.6219 98.9196 91.8658 101.941 90.8438C104.141 90.1107 105.307 86.8337 105.896 84.2233C105.951 83.99 106.04 83.3235 106.107 82.7348C106.64 78.658 107.529 69.8602 114.082 65.3614C121.092 60.5515 128.457 60.5515 128.457 60.5515L129.79 73.7926C126.402 73.2927 124.047 73.9814 122.058 75.0811C114.571 79.2467 121.092 95.2427 109.439 100.619C98.2309 105.829 89.0665 96.8423 86.0673 94.3318Z" fill="#03A9F4"/>
<path d="M44.8332 77.4472L40.0122 73.1261C48.8655 63.2397 46.5327 55.9748 44.8332 50.6873C44.4888 49.6209 44.1667 48.61 43.9556 47.6436C43.2002 44.2222 43.0447 41.2452 43.278 38.6458C39.8789 34.4136 38.3792 29.9814 38.2793 29.6814C36.2131 23.4274 37.7683 17.329 41.334 11.6082C48.5433 0 61.5956 0 61.5956 0L65.9501 11.6526C62.6398 11.5193 51.787 11.686 48.4545 16.9402C44.2444 23.5607 47.0104 27.6486 47.2103 28.1152C48.0213 27.0599 48.8433 26.2156 49.5764 25.5602C54.8973 20.8392 59.5184 20.1616 62.4621 20.4282C65.7723 20.7281 68.7716 22.3944 70.9155 25.127C73.2593 28.1263 74.2258 32.0253 73.4815 35.5688C72.7595 39.0235 70.4601 41.945 67.0054 43.8001C60.9736 47.0437 55.9526 46.5994 52.5868 45.4775C52.609 45.5552 52.6201 45.6441 52.6423 45.7218C52.7645 46.2773 53.0089 47.0548 53.2977 47.9546C55.2639 54.042 58.9185 63.7062 44.8332 77.4472ZM52.9978 35.7577C53.6421 36.2242 54.3197 36.613 55.0195 36.8907C57.3522 37.8238 59.896 37.5128 62.7842 35.9576C64.4838 35.0467 64.6837 34.0692 64.7504 33.7471C64.9503 32.7806 64.6171 31.5476 63.895 30.6256C63.2619 29.8147 62.5287 29.3926 61.6512 29.3037C59.9849 29.1593 57.7299 30.2146 55.4749 32.2252C54.3974 33.1917 53.5754 34.3802 52.9978 35.7577Z" fill="#F44336"/>
<path d="M64.1284 79.2578L57.2301 79.069C57.2301 79.069 60.5071 60.5625 71.1155 57.4522C73.1039 56.8746 75.2811 56.2858 77.4695 55.9637C78.7691 55.7637 80.8242 55.4638 81.835 55.0861C82.0683 53.3421 81.3351 51.1205 80.5131 48.5989C79.8688 46.6438 79.2023 44.6332 78.8469 42.4338C78.1582 38.1459 79.3023 34.358 82.0683 31.7476C85.4452 28.5817 90.8994 27.5708 97.0534 28.9705C100.564 29.7703 103.152 31.4921 105.429 33.0028C108.684 35.1689 110.583 36.2686 114.56 33.5915C119.37 30.3479 113.083 17.6511 109.739 10.3196L122.214 5.12091C123.891 8.78666 131.989 27.6486 126.646 38.4125C124.846 42.0339 121.747 44.4333 117.682 45.333C108.839 47.3103 103.663 43.8667 99.886 41.3562C98.0976 40.1677 96.5313 39.2346 94.8318 38.7458C83.0236 35.38 99.5084 52.7534 91.7881 60.5625C87.1559 65.2391 75.8365 66.4722 75.1034 66.6499C67.8163 68.405 64.1284 79.2578 64.1284 79.2578Z" fill="#F48FB1"/>
<path d="M43.2669 38.6458C43.0558 41.0897 42.9559 42.5449 43.589 45.7218C46.6438 47.9657 53.2977 47.9657 53.2977 47.9657C53.0089 47.0659 52.7534 46.2884 52.6423 45.7329C52.6201 45.6552 52.609 45.5663 52.5868 45.4886C45.8218 42.1116 43.2669 38.6458 43.2669 38.6458Z" fill="#C92B27"/>
<path d="M29.4259 49.5875L17.9399 43.9556L23.6607 35.691L32.6696 41.6562L29.4259 49.5875Z" fill="#FFC107"/>
<path d="M12.4969 33.9914C6.63167 33.2028 0.655391 28.2262 0 27.6597L5.76522 20.8947C7.50922 22.3722 11.2083 24.8493 13.6854 25.1826L12.4969 33.9914Z" fill="#FB8C00"/>
<path d="M22.8498 19.184L14.4075 16.4181C15.3739 13.4633 15.6294 10.2752 15.1295 7.19817L23.9051 5.78741C24.6271 10.253 24.2605 14.8851 22.8498 19.184Z" fill="#03A9F4"/>
<path d="M75.5731 12.5801L84.2545 10.681L86.7613 22.1404L78.0799 24.0395L75.5731 12.5801Z" fill="#FB8C00"/>
<path d="M97.109 15.2962L90.9994 8.84223C94.1986 5.80966 94.9317 1.84399 94.9317 1.79956L103.707 3.23253C103.596 3.93236 102.474 10.2197 97.109 15.2962Z" fill="#FFC107"/>
<path d="M100.504 49.5223L108.265 47.0967L110.916 55.579L103.155 58.0046L100.504 49.5223Z" fill="#FB8C00"/>
<path d="M102.763 121.114L93.9319 120.07C94.3095 116.926 91.9657 113.072 91.3214 112.216L98.4307 106.884C98.9639 107.584 103.596 113.994 102.763 121.114Z" fill="#F44336"/>
<path d="M128.112 109.85C124.791 109.35 121.392 109.15 118.037 109.273L117.737 100.386C121.636 100.253 125.58 100.475 129.434 101.063L128.112 109.85Z" fill="#FB8C00"/>
<path d="M116.164 122.083L122.408 115.759L131 124.243L124.756 130.566L116.164 122.083Z" fill="#F48FB1"/>
<path d="M97.8188 65.9069L104.239 73.2481L96.8982 79.6685L90.4777 72.3274L97.8188 65.9069Z" fill="#F44336"/>
<defs>
<linearGradient id="paint0_linear_180_7667" x1="77.0298" y1="64.2488" x2="43.9634" y2="84.0887" gradientUnits="userSpaceOnUse">
<stop offset="0.0235" stop-color="#8F4700"/>
<stop offset="1" stop-color="#703E2D"/>
</linearGradient>
</defs>
</svg>
