<svg width="75" height="72" viewBox="0 0 75 72" fill="none" xmlns="http://www.w3.org/2000/svg">
<path d="M48.7187 43.11C49.3695 45.7532 49.3887 48.5035 48.7749 51.1549C48.1611 53.8062 46.9303 56.2899 45.1747 58.4197C43.4191 60.5496 41.1841 62.2704 38.6373 63.4533C36.0906 64.6361 33.2979 65.2504 30.4687 65.25V50.85M48.7187 43.11C54.6871 38.9363 59.5424 33.4665 62.888 27.1472C66.2336 20.828 67.9746 13.8386 67.9687 6.75001C60.5853 6.74489 53.3053 8.41647 46.7234 11.6282C40.1414 14.84 34.4441 19.5008 30.0969 25.23M48.7187 43.11C43.2872 46.9238 37.0635 49.5643 30.4687 50.85M30.4687 50.85C30.1454 50.9132 29.8215 50.9732 29.4969 51.03C26.6618 48.8719 24.0949 46.4076 21.8469 43.686C21.9059 43.3734 21.9653 43.0614 22.0312 42.75M30.0969 25.23C27.3433 24.6048 24.4781 24.586 21.7158 25.1749C18.9536 25.7639 16.3661 26.9454 14.1471 28.6308C11.9281 30.3163 10.1353 32.462 8.90296 34.9072C7.67062 37.3524 7.03074 40.0337 7.03125 42.75H22.0312M30.0969 25.23C26.1246 30.4435 23.3711 36.4201 22.0312 42.75M15.0344 49.92C12.9787 51.3875 11.3804 53.3669 10.4126 55.644C9.44476 57.921 9.1443 60.4088 9.54375 62.838C12.0745 63.2211 14.6661 62.9323 17.0381 62.0026C19.41 61.073 21.4717 59.538 23 57.564M51.5625 27C51.5625 28.1935 51.0686 29.3381 50.1896 30.182C49.3105 31.0259 48.1182 31.5 46.875 31.5C45.6318 31.5 44.4395 31.0259 43.5604 30.182C42.6814 29.3381 42.1875 28.1935 42.1875 27C42.1875 25.8065 42.6814 24.6619 43.5604 23.818C44.4395 22.9741 45.6318 22.5 46.875 22.5C48.1182 22.5 49.3105 22.9741 50.1896 23.818C51.0686 24.6619 51.5625 25.8065 51.5625 27Z" stroke="#121212" stroke-width="1.5" stroke-linecap="round" stroke-linejoin="round"/>
</svg>
