<svg width="34" height="33" viewBox="0 0 34 33" fill="none" xmlns="http://www.w3.org/2000/svg">
<path d="M22.8913 20.2677C23.233 21.6684 23.2431 23.1258 22.9208 24.5308C22.5985 25.9358 21.9521 27.2519 21.0302 28.3805C20.1083 29.5092 18.9346 30.4211 17.5973 31.0479C16.2599 31.6747 14.7934 32.0002 13.3077 32V24.3692M22.8913 20.2677C26.0254 18.056 28.5751 15.1575 30.3319 11.8088C32.0888 8.46014 33.0031 4.75636 33 1.00001C29.1227 0.997294 25.2998 1.88308 21.8434 3.58503C18.3871 5.28698 15.3953 7.75682 13.1124 10.7928M22.8913 20.2677C20.039 22.2887 16.7708 23.6879 13.3077 24.3692M13.3077 24.3692C13.1379 24.4027 12.9678 24.4345 12.7973 24.4646C11.3086 23.321 9.96063 22.0152 8.7801 20.5729C8.8111 20.4073 8.84228 20.2419 8.87692 20.0769M13.1124 10.7928C11.6664 10.4615 10.1618 10.4515 8.71129 10.7636C7.26077 11.0757 5.90197 11.7018 4.73673 12.595C3.57149 13.4881 2.63003 14.6252 1.98289 15.9209C1.33575 17.2167 0.99973 18.6375 1 20.0769H8.87692M13.1124 10.7928C11.0265 13.5555 9.58052 16.7226 8.87692 20.0769M5.20267 23.8764C4.12317 24.6541 3.28386 25.703 2.77563 26.9096C2.2674 28.1162 2.10962 29.4346 2.31938 30.7218C3.64833 30.9249 5.00929 30.7718 6.25486 30.2792C7.50042 29.7865 8.5831 28.9731 9.38564 27.9271M24.3846 11.7308C24.3846 12.3632 24.1253 12.9697 23.6636 13.417C23.202 13.8642 22.5759 14.1154 21.9231 14.1154C21.2702 14.1154 20.6441 13.8642 20.1825 13.417C19.7209 12.9697 19.4615 12.3632 19.4615 11.7308C19.4615 11.0983 19.7209 10.4918 20.1825 10.0446C20.6441 9.59739 21.2702 9.34616 21.9231 9.34616C22.5759 9.34616 23.202 9.59739 23.6636 10.0446C24.1253 10.4918 24.3846 11.0983 24.3846 11.7308Z" stroke="#272E67" stroke-width="1.5" stroke-linecap="round" stroke-linejoin="round"/>
</svg>
